<mxfile host="app.diagrams.net" modified="2021-10-14T10:10:57.665Z" agent="5.0 (Windows NT 10.0; Win64; x64) AppleWebKit/537.36 (KHTML, like Gecko) Chrome/94.0.4606.81 Safari/537.36 Edg/94.0.992.47" etag="jtHSDcDp3e8c5iW8rMSE" version="15.5.2" type="github" pages="3">
  <diagram id="M77ANdr9X2s9HXMzlOHC" name="Page-1">
    <mxGraphModel dx="782" dy="436" grid="1" gridSize="10" guides="1" tooltips="1" connect="1" arrows="1" fold="1" page="1" pageScale="1" pageWidth="850" pageHeight="1100" math="0" shadow="0">
      <root>
        <mxCell id="0" />
        <mxCell id="1" parent="0" />
        <mxCell id="zp5esCSb5nrr4HkL_zsH-1" value="" style="ellipse;whiteSpace=wrap;html=1;aspect=fixed;align=center;" parent="1" vertex="1">
          <mxGeometry x="120" y="70" width="560" height="560" as="geometry" />
        </mxCell>
        <mxCell id="zp5esCSb5nrr4HkL_zsH-3" value="&lt;span style=&quot;color: rgb(43 , 40 , 38) ; font-family: , &amp;#34;helvetica&amp;#34; , &amp;#34;arial&amp;#34; , sans-serif ; font-size: 14px ; text-align: left ; background-color: rgb(255 , 255 , 255)&quot;&gt;1)Subscribers will be unsubscribed from all business units in the Enterprise&lt;/span&gt;" style="text;html=1;align=center;verticalAlign=middle;resizable=0;points=[];autosize=1;strokeColor=none;fillColor=none;" parent="1" vertex="1">
          <mxGeometry x="50" y="30" width="480" height="20" as="geometry" />
        </mxCell>
        <mxCell id="zp5esCSb5nrr4HkL_zsH-5" value="Parent BU" style="text;html=1;align=center;verticalAlign=middle;resizable=0;points=[];autosize=1;strokeColor=none;fillColor=none;" parent="1" vertex="1">
          <mxGeometry x="165" y="90" width="70" height="20" as="geometry" />
        </mxCell>
        <mxCell id="zp5esCSb5nrr4HkL_zsH-6" value="&lt;b&gt;Child#1 BU&lt;/b&gt;&lt;br&gt;Record 1 is unsubscribed&lt;br&gt;at the Child BU (new &lt;br&gt;record)" style="ellipse;whiteSpace=wrap;html=1;aspect=fixed;" parent="1" vertex="1">
          <mxGeometry x="140" y="230" width="150" height="150" as="geometry" />
        </mxCell>
        <mxCell id="zp5esCSb5nrr4HkL_zsH-7" value="Record 1 will be Unsubscribed at&lt;br&gt;the Parent BU" style="text;html=1;strokeColor=default;fillColor=none;align=center;verticalAlign=middle;whiteSpace=wrap;rounded=0;" parent="1" vertex="1">
          <mxGeometry x="250" y="100" width="110" height="70" as="geometry" />
        </mxCell>
        <mxCell id="zp5esCSb5nrr4HkL_zsH-8" value="" style="endArrow=classic;html=1;rounded=0;entryX=0.152;entryY=0.971;entryDx=0;entryDy=0;entryPerimeter=0;" parent="1" source="zp5esCSb5nrr4HkL_zsH-6" target="zp5esCSb5nrr4HkL_zsH-7" edge="1">
          <mxGeometry width="50" height="50" relative="1" as="geometry">
            <mxPoint x="360" y="220" as="sourcePoint" />
            <mxPoint x="410" y="170" as="targetPoint" />
          </mxGeometry>
        </mxCell>
        <mxCell id="zp5esCSb5nrr4HkL_zsH-9" value="" style="ellipse;whiteSpace=wrap;html=1;aspect=fixed;" parent="1" vertex="1">
          <mxGeometry x="300" y="240" width="150" height="150" as="geometry" />
        </mxCell>
        <mxCell id="zp5esCSb5nrr4HkL_zsH-10" value="&lt;b&gt;Child#2 BU&lt;/b&gt;" style="text;html=1;strokeColor=none;fillColor=none;align=center;verticalAlign=middle;whiteSpace=wrap;rounded=0;" parent="1" vertex="1">
          <mxGeometry x="337.5" y="250" width="75" height="30" as="geometry" />
        </mxCell>
        <mxCell id="zp5esCSb5nrr4HkL_zsH-11" value="If an existing record (Record 1) from the parent bu, that has Unsubscribe status,&lt;br&gt;Child#2 BU will not be able to activate it." style="text;html=1;strokeColor=none;fillColor=none;align=center;verticalAlign=middle;whiteSpace=wrap;rounded=0;" parent="1" vertex="1">
          <mxGeometry x="315" y="260" width="120" height="135" as="geometry" />
        </mxCell>
        <mxCell id="zp5esCSb5nrr4HkL_zsH-12" value="" style="endArrow=classic;html=1;rounded=0;entryX=0.5;entryY=0;entryDx=0;entryDy=0;exitX=0.667;exitY=1.038;exitDx=0;exitDy=0;exitPerimeter=0;" parent="1" source="zp5esCSb5nrr4HkL_zsH-7" target="zp5esCSb5nrr4HkL_zsH-9" edge="1">
          <mxGeometry width="50" height="50" relative="1" as="geometry">
            <mxPoint x="340" y="240" as="sourcePoint" />
            <mxPoint x="390" y="190" as="targetPoint" />
          </mxGeometry>
        </mxCell>
        <mxCell id="zp5esCSb5nrr4HkL_zsH-13" value="New Record 1" style="text;html=1;strokeColor=none;fillColor=none;align=center;verticalAlign=middle;whiteSpace=wrap;rounded=0;rotation=0;" parent="1" vertex="1">
          <mxGeometry x="220" y="190" width="40" height="30" as="geometry" />
        </mxCell>
        <mxCell id="zp5esCSb5nrr4HkL_zsH-14" value="Existing Record 1" style="text;html=1;strokeColor=none;fillColor=none;align=center;verticalAlign=middle;whiteSpace=wrap;rounded=0;rotation=0;" parent="1" vertex="1">
          <mxGeometry x="355" y="180" width="40" height="30" as="geometry" />
        </mxCell>
        <mxCell id="zp5esCSb5nrr4HkL_zsH-16" value="STEP 1" style="text;html=1;strokeColor=#6c8ebf;fillColor=#dae8fc;align=center;verticalAlign=middle;whiteSpace=wrap;rounded=0;" parent="1" vertex="1">
          <mxGeometry x="165" y="240" width="60" height="30" as="geometry" />
        </mxCell>
        <mxCell id="zp5esCSb5nrr4HkL_zsH-17" value="STEP 2" style="text;html=1;strokeColor=#6c8ebf;fillColor=#dae8fc;align=center;verticalAlign=middle;whiteSpace=wrap;rounded=0;" parent="1" vertex="1">
          <mxGeometry x="285" y="85" width="60" height="30" as="geometry" />
        </mxCell>
        <mxCell id="zp5esCSb5nrr4HkL_zsH-18" value="STEP 3" style="text;html=1;strokeColor=#6c8ebf;fillColor=#dae8fc;align=center;verticalAlign=middle;whiteSpace=wrap;rounded=0;" parent="1" vertex="1">
          <mxGeometry x="370" y="220" width="60" height="30" as="geometry" />
        </mxCell>
        <mxCell id="zp5esCSb5nrr4HkL_zsH-20" value="&lt;font color=&quot;#000099&quot;&gt;&lt;b&gt;Child#1 BU&lt;/b&gt;&lt;br&gt;If the Child#1 BU wanted to activate Record 1,&amp;nbsp;&lt;br&gt;they can activate it from&amp;nbsp;&lt;br&gt;this business unit???&lt;/font&gt;" style="ellipse;whiteSpace=wrap;html=1;aspect=fixed;" parent="1" vertex="1">
          <mxGeometry x="490" y="290" width="150" height="150" as="geometry" />
        </mxCell>
        <mxCell id="zp5esCSb5nrr4HkL_zsH-21" value="" style="endArrow=classic;html=1;rounded=0;exitX=0.191;exitY=0.933;exitDx=0;exitDy=0;exitPerimeter=0;entryX=0.59;entryY=-0.027;entryDx=0;entryDy=0;entryPerimeter=0;" parent="1" source="zp5esCSb5nrr4HkL_zsH-20" target="dnP2f6q4hplHWsXKWP3F-1" edge="1">
          <mxGeometry width="50" height="50" relative="1" as="geometry">
            <mxPoint x="340" y="310" as="sourcePoint" />
            <mxPoint x="390" y="260" as="targetPoint" />
          </mxGeometry>
        </mxCell>
        <mxCell id="zp5esCSb5nrr4HkL_zsH-22" value="&lt;font color=&quot;#0000cc&quot;&gt;&lt;b&gt;@Parent BU&lt;/b&gt;&lt;br&gt;If Parent BU wanted to activate Record 1 at this level, Record 1 cannot be activated at Parent BU since it was unsubscribe initially at Child#1???&lt;/font&gt;" style="text;html=1;strokeColor=default;fillColor=none;align=center;verticalAlign=middle;whiteSpace=wrap;rounded=0;rotation=0;" parent="1" vertex="1">
          <mxGeometry x="470" y="130" width="140" height="130" as="geometry" />
        </mxCell>
        <mxCell id="zp5esCSb5nrr4HkL_zsH-23" value="STEP 5" style="text;html=1;strokeColor=#6c8ebf;fillColor=#dae8fc;align=center;verticalAlign=middle;whiteSpace=wrap;rounded=0;" parent="1" vertex="1">
          <mxGeometry x="535" y="290" width="60" height="30" as="geometry" />
        </mxCell>
        <mxCell id="zp5esCSb5nrr4HkL_zsH-24" value="STEP 4" style="text;html=1;strokeColor=#6c8ebf;fillColor=#dae8fc;align=center;verticalAlign=middle;whiteSpace=wrap;rounded=0;" parent="1" vertex="1">
          <mxGeometry x="490" y="110" width="60" height="30" as="geometry" />
        </mxCell>
        <mxCell id="dnP2f6q4hplHWsXKWP3F-1" value="Existing Record 1&lt;br&gt;will be activated at both Children and Parent BU?" style="text;html=1;strokeColor=none;fillColor=none;align=center;verticalAlign=middle;whiteSpace=wrap;rounded=0;rotation=0;" parent="1" vertex="1">
          <mxGeometry x="370" y="490" width="125" height="60" as="geometry" />
        </mxCell>
        <mxCell id="dnP2f6q4hplHWsXKWP3F-4" value="STEP 6" style="text;html=1;strokeColor=#6c8ebf;fillColor=#dae8fc;align=center;verticalAlign=middle;whiteSpace=wrap;rounded=0;" parent="1" vertex="1">
          <mxGeometry x="390" y="450" width="60" height="30" as="geometry" />
        </mxCell>
      </root>
    </mxGraphModel>
  </diagram>
  <diagram id="EgBsvIfDsWsQL3gK1-Qx" name="Page-2">
    <mxGraphModel dx="782" dy="436" grid="1" gridSize="10" guides="1" tooltips="1" connect="1" arrows="1" fold="1" page="1" pageScale="1" pageWidth="850" pageHeight="1100" math="0" shadow="0">
      <root>
        <mxCell id="CEfxVja-TNXCTXSumTY8-0" />
        <mxCell id="CEfxVja-TNXCTXSumTY8-1" parent="CEfxVja-TNXCTXSumTY8-0" />
        <mxCell id="DqOJCjC2_lp1kB3DQxjG-0" value="" style="ellipse;whiteSpace=wrap;html=1;aspect=fixed;align=center;" parent="CEfxVja-TNXCTXSumTY8-1" vertex="1">
          <mxGeometry x="120" y="70" width="530" height="530" as="geometry" />
        </mxCell>
        <mxCell id="DqOJCjC2_lp1kB3DQxjG-2" value="&lt;span style=&quot;color: rgb(43 , 40 , 38) ; font-family: , &amp;#34;helvetica&amp;#34; , &amp;#34;arial&amp;#34; , sans-serif ; font-size: 14px ; text-align: left ; background-color: rgb(255 , 255 , 255)&quot;&gt;1)Subscribers will be unsubscribed from all business units in the Enterprise&lt;/span&gt;" style="text;html=1;align=center;verticalAlign=middle;resizable=0;points=[];autosize=1;strokeColor=none;fillColor=none;" parent="CEfxVja-TNXCTXSumTY8-1" vertex="1">
          <mxGeometry x="50" y="30" width="480" height="20" as="geometry" />
        </mxCell>
        <mxCell id="DqOJCjC2_lp1kB3DQxjG-3" value="Parent BU" style="text;html=1;align=center;verticalAlign=middle;resizable=0;points=[];autosize=1;strokeColor=none;fillColor=none;" parent="CEfxVja-TNXCTXSumTY8-1" vertex="1">
          <mxGeometry x="165" y="90" width="70" height="20" as="geometry" />
        </mxCell>
        <mxCell id="DqOJCjC2_lp1kB3DQxjG-4" value="&lt;b&gt;Child#1 BU&lt;/b&gt;&lt;br&gt;If Child#1 BU wanted to activate Record 2, Record 2 will not be&amp;nbsp; activated at this BU level." style="ellipse;whiteSpace=wrap;html=1;aspect=fixed;" parent="CEfxVja-TNXCTXSumTY8-1" vertex="1">
          <mxGeometry x="140" y="230" width="150" height="150" as="geometry" />
        </mxCell>
        <mxCell id="DqOJCjC2_lp1kB3DQxjG-5" value="Record 2 has been Unsubscribed at&lt;br&gt;the Parent BU" style="text;html=1;strokeColor=default;fillColor=none;align=center;verticalAlign=middle;whiteSpace=wrap;rounded=0;" parent="CEfxVja-TNXCTXSumTY8-1" vertex="1">
          <mxGeometry x="260" y="100" width="110" height="70" as="geometry" />
        </mxCell>
        <mxCell id="DqOJCjC2_lp1kB3DQxjG-7" value="" style="ellipse;whiteSpace=wrap;html=1;aspect=fixed;" parent="CEfxVja-TNXCTXSumTY8-1" vertex="1">
          <mxGeometry x="320" y="245" width="150" height="150" as="geometry" />
        </mxCell>
        <mxCell id="DqOJCjC2_lp1kB3DQxjG-10" value="" style="endArrow=classic;html=1;rounded=0;entryX=0.5;entryY=0;entryDx=0;entryDy=0;exitX=0;exitY=1;exitDx=0;exitDy=0;" parent="CEfxVja-TNXCTXSumTY8-1" source="DqOJCjC2_lp1kB3DQxjG-18" target="DqOJCjC2_lp1kB3DQxjG-7" edge="1">
          <mxGeometry width="50" height="50" relative="1" as="geometry">
            <mxPoint x="340" y="240" as="sourcePoint" />
            <mxPoint x="390" y="190" as="targetPoint" />
          </mxGeometry>
        </mxCell>
        <mxCell id="DqOJCjC2_lp1kB3DQxjG-13" value="STEP 2A" style="text;html=1;strokeColor=#d79b00;fillColor=#ffe6cc;align=center;verticalAlign=middle;whiteSpace=wrap;rounded=0;" parent="CEfxVja-TNXCTXSumTY8-1" vertex="1">
          <mxGeometry x="165" y="240" width="60" height="30" as="geometry" />
        </mxCell>
        <mxCell id="DqOJCjC2_lp1kB3DQxjG-14" value="STEP&amp;nbsp; 1A" style="text;html=1;strokeColor=#d79b00;fillColor=#ffe6cc;align=center;verticalAlign=middle;whiteSpace=wrap;rounded=0;" parent="CEfxVja-TNXCTXSumTY8-1" vertex="1">
          <mxGeometry x="285" y="85" width="60" height="30" as="geometry" />
        </mxCell>
        <mxCell id="DqOJCjC2_lp1kB3DQxjG-15" value="STEP 2B" style="text;html=1;strokeColor=#b85450;fillColor=#f8cecc;align=center;verticalAlign=middle;whiteSpace=wrap;rounded=0;" parent="CEfxVja-TNXCTXSumTY8-1" vertex="1">
          <mxGeometry x="360" y="240" width="60" height="30" as="geometry" />
        </mxCell>
        <mxCell id="DqOJCjC2_lp1kB3DQxjG-16" value="Child#1 BU&lt;br&gt;Child# 1 will have Record 3 active since Parent BU has Active status for Record 3." style="ellipse;whiteSpace=wrap;html=1;aspect=fixed;" parent="CEfxVja-TNXCTXSumTY8-1" vertex="1">
          <mxGeometry x="490" y="240" width="150" height="150" as="geometry" />
        </mxCell>
        <mxCell id="DqOJCjC2_lp1kB3DQxjG-17" value="" style="endArrow=classic;html=1;rounded=0;exitX=0.267;exitY=0.04;exitDx=0;exitDy=0;exitPerimeter=0;entryX=0.75;entryY=1;entryDx=0;entryDy=0;" parent="CEfxVja-TNXCTXSumTY8-1" source="DqOJCjC2_lp1kB3DQxjG-16" target="DqOJCjC2_lp1kB3DQxjG-18" edge="1">
          <mxGeometry width="50" height="50" relative="1" as="geometry">
            <mxPoint x="340" y="310" as="sourcePoint" />
            <mxPoint x="390" y="260" as="targetPoint" />
          </mxGeometry>
        </mxCell>
        <mxCell id="DqOJCjC2_lp1kB3DQxjG-18" value="Record 3 has been Activated at the Parent BU" style="text;html=1;strokeColor=default;fillColor=none;align=center;verticalAlign=middle;whiteSpace=wrap;rounded=0;rotation=0;" parent="CEfxVja-TNXCTXSumTY8-1" vertex="1">
          <mxGeometry x="440" y="130" width="105" height="50" as="geometry" />
        </mxCell>
        <mxCell id="DqOJCjC2_lp1kB3DQxjG-19" value="STEP 2C" style="text;html=1;strokeColor=#b85450;fillColor=#f8cecc;align=center;verticalAlign=middle;whiteSpace=wrap;rounded=0;" parent="CEfxVja-TNXCTXSumTY8-1" vertex="1">
          <mxGeometry x="535" y="240" width="60" height="30" as="geometry" />
        </mxCell>
        <mxCell id="DqOJCjC2_lp1kB3DQxjG-20" value="STEP 1B" style="text;html=1;strokeColor=#b85450;fillColor=#f8cecc;align=center;verticalAlign=middle;whiteSpace=wrap;rounded=0;" parent="CEfxVja-TNXCTXSumTY8-1" vertex="1">
          <mxGeometry x="450" y="100" width="60" height="30" as="geometry" />
        </mxCell>
        <mxCell id="Tp1F4OdR8fQOERQToJOn-0" value="" style="endArrow=classic;html=1;rounded=0;entryX=0.649;entryY=0.036;entryDx=0;entryDy=0;exitX=0.25;exitY=1;exitDx=0;exitDy=0;entryPerimeter=0;" parent="CEfxVja-TNXCTXSumTY8-1" source="DqOJCjC2_lp1kB3DQxjG-5" target="DqOJCjC2_lp1kB3DQxjG-4" edge="1">
          <mxGeometry width="50" height="50" relative="1" as="geometry">
            <mxPoint x="279.9999999999999" y="169.99999999999997" as="sourcePoint" />
            <mxPoint x="321.63" y="237.34" as="targetPoint" />
          </mxGeometry>
        </mxCell>
        <mxCell id="Tp1F4OdR8fQOERQToJOn-1" value="&lt;b&gt;Child#2 BU&lt;/b&gt;&lt;br&gt;If Child#2 BU wanted to unsubscribe Record3,&lt;br&gt;Record 3 will only be unsubscribe at this BU level. Parent BU will still have Active Record3" style="text;html=1;strokeColor=none;fillColor=none;align=center;verticalAlign=middle;whiteSpace=wrap;rounded=0;" parent="CEfxVja-TNXCTXSumTY8-1" vertex="1">
          <mxGeometry x="330" y="270" width="130" height="110" as="geometry" />
        </mxCell>
      </root>
    </mxGraphModel>
  </diagram>
  <diagram id="RkE49c_FGtTao_uLgUYm" name="Page-3">
    <mxGraphModel dx="782" dy="436" grid="1" gridSize="10" guides="1" tooltips="1" connect="1" arrows="1" fold="1" page="1" pageScale="1" pageWidth="850" pageHeight="1100" math="0" shadow="0">
      <root>
        <mxCell id="sorx6x5YS4TXoiX6V91C-0" />
        <mxCell id="sorx6x5YS4TXoiX6V91C-1" parent="sorx6x5YS4TXoiX6V91C-0" />
        <mxCell id="2P5cfEg7wQXTq4tr7HCc-0" value="" style="ellipse;whiteSpace=wrap;html=1;aspect=fixed;align=center;" parent="sorx6x5YS4TXoiX6V91C-1" vertex="1">
          <mxGeometry x="120" y="70" width="530" height="530" as="geometry" />
        </mxCell>
        <mxCell id="2P5cfEg7wQXTq4tr7HCc-1" value="&lt;span style=&quot;color: rgb(43 , 40 , 38) ; font-family: , &amp;#34;helvetica&amp;#34; , &amp;#34;arial&amp;#34; , sans-serif ; font-size: 14px ; text-align: left ; background-color: rgb(255 , 255 , 255)&quot;&gt;2)Subscribers will be unsubscribed from this business unit only&lt;/span&gt;" style="text;html=1;align=center;verticalAlign=middle;resizable=0;points=[];autosize=1;strokeColor=none;fillColor=none;" parent="sorx6x5YS4TXoiX6V91C-1" vertex="1">
          <mxGeometry x="90" y="30" width="400" height="20" as="geometry" />
        </mxCell>
        <mxCell id="2P5cfEg7wQXTq4tr7HCc-2" value="Parent BU" style="text;html=1;align=center;verticalAlign=middle;resizable=0;points=[];autosize=1;strokeColor=none;fillColor=none;" parent="sorx6x5YS4TXoiX6V91C-1" vertex="1">
          <mxGeometry x="165" y="90" width="70" height="20" as="geometry" />
        </mxCell>
        <mxCell id="2P5cfEg7wQXTq4tr7HCc-3" value="&lt;b&gt;Child#1 BU&lt;/b&gt;&lt;br&gt;If Child#1 BU wanted to Unsubscribe Record 4 at this BU level, Record will be unsubscribe only at this BU, and will remain active at the Parent BU?" style="ellipse;whiteSpace=wrap;html=1;aspect=fixed;" parent="sorx6x5YS4TXoiX6V91C-1" vertex="1">
          <mxGeometry x="140" y="230" width="150" height="150" as="geometry" />
        </mxCell>
        <mxCell id="2P5cfEg7wQXTq4tr7HCc-4" value="Record 4 is ACTIVATED at the Enterprise Level, (ACTIVE STATUS)" style="text;html=1;strokeColor=default;fillColor=none;align=center;verticalAlign=middle;whiteSpace=wrap;rounded=0;" parent="sorx6x5YS4TXoiX6V91C-1" vertex="1">
          <mxGeometry x="260" y="100" width="110" height="70" as="geometry" />
        </mxCell>
        <mxCell id="2P5cfEg7wQXTq4tr7HCc-7" value="STEP 2A" style="text;html=1;strokeColor=#d79b00;fillColor=#ffe6cc;align=center;verticalAlign=middle;whiteSpace=wrap;rounded=0;" parent="sorx6x5YS4TXoiX6V91C-1" vertex="1">
          <mxGeometry x="175" y="220" width="60" height="30" as="geometry" />
        </mxCell>
        <mxCell id="2P5cfEg7wQXTq4tr7HCc-8" value="STEP&amp;nbsp; 1A" style="text;html=1;strokeColor=#d79b00;fillColor=#ffe6cc;align=center;verticalAlign=middle;whiteSpace=wrap;rounded=0;" parent="sorx6x5YS4TXoiX6V91C-1" vertex="1">
          <mxGeometry x="300" y="70" width="60" height="30" as="geometry" />
        </mxCell>
        <mxCell id="2P5cfEg7wQXTq4tr7HCc-10" value="&lt;b&gt;Child#2 BU&lt;/b&gt;&lt;br&gt;If Child#2 BU activated Record 5 at this level, Record 5 will be activated at this BU level." style="ellipse;whiteSpace=wrap;html=1;aspect=fixed;" parent="sorx6x5YS4TXoiX6V91C-1" vertex="1">
          <mxGeometry x="490" y="240" width="150" height="150" as="geometry" />
        </mxCell>
        <mxCell id="2P5cfEg7wQXTq4tr7HCc-11" value="" style="endArrow=classic;html=1;rounded=0;exitX=0.267;exitY=0.04;exitDx=0;exitDy=0;exitPerimeter=0;entryX=0.75;entryY=1;entryDx=0;entryDy=0;" parent="sorx6x5YS4TXoiX6V91C-1" source="2P5cfEg7wQXTq4tr7HCc-10" target="2P5cfEg7wQXTq4tr7HCc-12" edge="1">
          <mxGeometry width="50" height="50" relative="1" as="geometry">
            <mxPoint x="340" y="310" as="sourcePoint" />
            <mxPoint x="390" y="260" as="targetPoint" />
          </mxGeometry>
        </mxCell>
        <mxCell id="2P5cfEg7wQXTq4tr7HCc-12" value="Record 5 will have ACTIVE status at the Parent BU" style="text;html=1;strokeColor=default;fillColor=none;align=center;verticalAlign=middle;whiteSpace=wrap;rounded=0;rotation=0;" parent="sorx6x5YS4TXoiX6V91C-1" vertex="1">
          <mxGeometry x="440" y="130" width="105" height="50" as="geometry" />
        </mxCell>
        <mxCell id="2P5cfEg7wQXTq4tr7HCc-13" value="STEP 1B" style="text;html=1;strokeColor=#b85450;fillColor=#f8cecc;align=center;verticalAlign=middle;whiteSpace=wrap;rounded=0;" parent="sorx6x5YS4TXoiX6V91C-1" vertex="1">
          <mxGeometry x="535" y="240" width="60" height="30" as="geometry" />
        </mxCell>
        <mxCell id="2P5cfEg7wQXTq4tr7HCc-14" value="STEP 2B" style="text;html=1;strokeColor=#b85450;fillColor=#f8cecc;align=center;verticalAlign=middle;whiteSpace=wrap;rounded=0;" parent="sorx6x5YS4TXoiX6V91C-1" vertex="1">
          <mxGeometry x="450" y="100" width="60" height="30" as="geometry" />
        </mxCell>
        <mxCell id="2P5cfEg7wQXTq4tr7HCc-15" value="" style="endArrow=classic;html=1;rounded=0;entryX=0.649;entryY=0.036;entryDx=0;entryDy=0;exitX=0.25;exitY=1;exitDx=0;exitDy=0;entryPerimeter=0;" parent="sorx6x5YS4TXoiX6V91C-1" source="2P5cfEg7wQXTq4tr7HCc-4" target="2P5cfEg7wQXTq4tr7HCc-3" edge="1">
          <mxGeometry width="50" height="50" relative="1" as="geometry">
            <mxPoint x="279.9999999999999" y="169.99999999999997" as="sourcePoint" />
            <mxPoint x="321.63" y="237.34" as="targetPoint" />
          </mxGeometry>
        </mxCell>
        <mxCell id="2P5cfEg7wQXTq4tr7HCc-18" value="&lt;span style=&quot;color: rgb(43 , 40 , 38) ; font-family: , &amp;#34;helvetica&amp;#34; , &amp;#34;arial&amp;#34; , sans-serif ; font-size: 14px ; text-align: left ; background-color: rgb(255 , 255 , 255)&quot;&gt;&lt;i&gt;If you unsubscribe a subscriber in the All Subscribers list at the business unit level via an Automation Studio import activity, the subscriber is not unsubscribed in the All Subscriber list at the enterprise level.&lt;/i&gt;&lt;/span&gt;" style="text;html=1;strokeColor=default;fillColor=none;align=center;verticalAlign=middle;whiteSpace=wrap;rounded=0;" parent="sorx6x5YS4TXoiX6V91C-1" vertex="1">
          <mxGeometry x="30" y="370" width="235" height="150" as="geometry" />
        </mxCell>
        <mxCell id="2P5cfEg7wQXTq4tr7HCc-19" value="&lt;span style=&quot;color: rgb(43 , 40 , 38) ; font-family: , &amp;#34;helvetica&amp;#34; , &amp;#34;arial&amp;#34; , sans-serif ; font-size: 14px ; text-align: left ; background-color: rgb(255 , 255 , 255)&quot;&gt;&lt;i&gt;If you activate the subscriber in the All Subscribers list via an Automation Studio import activity at the business unit level, the subscriber is activated at the business unit level.&lt;/i&gt;&lt;/span&gt;" style="text;html=1;strokeColor=default;fillColor=none;align=center;verticalAlign=middle;whiteSpace=wrap;rounded=0;" parent="sorx6x5YS4TXoiX6V91C-1" vertex="1">
          <mxGeometry x="615" y="370" width="235" height="150" as="geometry" />
        </mxCell>
        <mxCell id="2P5cfEg7wQXTq4tr7HCc-20" value="&lt;b&gt;Child#2 BU&lt;/b&gt;&lt;br&gt;If Child#2 wanted to unsubscribe Record 5 at this bu level, Record 5 will be unsubscribed at this BU only, but will remain as ACTIVE at the Parent level even though it was initially activated at this child BU?????" style="ellipse;whiteSpace=wrap;html=1;aspect=fixed;" parent="sorx6x5YS4TXoiX6V91C-1" vertex="1">
          <mxGeometry x="345" y="290" width="150" height="150" as="geometry" />
        </mxCell>
        <mxCell id="2P5cfEg7wQXTq4tr7HCc-21" value="STEP 3B" style="text;html=1;strokeColor=#b85450;fillColor=#f8cecc;align=center;verticalAlign=middle;whiteSpace=wrap;rounded=0;" parent="sorx6x5YS4TXoiX6V91C-1" vertex="1">
          <mxGeometry x="390" y="260" width="60" height="30" as="geometry" />
        </mxCell>
        <mxCell id="2P5cfEg7wQXTq4tr7HCc-23" value="" style="endArrow=classic;html=1;rounded=0;exitX=0.165;exitY=1.133;exitDx=0;exitDy=0;exitPerimeter=0;entryX=0.753;entryY=0.084;entryDx=0;entryDy=0;entryPerimeter=0;" parent="sorx6x5YS4TXoiX6V91C-1" source="2P5cfEg7wQXTq4tr7HCc-12" target="2P5cfEg7wQXTq4tr7HCc-20" edge="1">
          <mxGeometry width="50" height="50" relative="1" as="geometry">
            <mxPoint x="540.05" y="256" as="sourcePoint" />
            <mxPoint x="528.75" y="190" as="targetPoint" />
          </mxGeometry>
        </mxCell>
        <mxCell id="2P5cfEg7wQXTq4tr7HCc-24" value="&lt;span style=&quot;color: rgb(43 , 40 , 38) ; font-family: , &amp;#34;helvetica&amp;#34; , &amp;#34;arial&amp;#34; , sans-serif ; font-size: 14px ; text-align: left ; background-color: rgb(255 , 255 , 255)&quot;&gt;&lt;i&gt;If you unsubscribe a subscriber in the All Subscribers list at the Business Unit Level via an Automation Studio import activity, the subscriber is not unsubscribed in the All Subscriber list at the Enterprise Level.&lt;/i&gt;&lt;/span&gt;" style="text;html=1;strokeColor=default;fillColor=none;align=center;verticalAlign=middle;whiteSpace=wrap;rounded=0;" parent="sorx6x5YS4TXoiX6V91C-1" vertex="1">
          <mxGeometry x="330" y="475" width="235" height="150" as="geometry" />
        </mxCell>
        <mxCell id="2P5cfEg7wQXTq4tr7HCc-25" value="" style="endArrow=classic;html=1;rounded=0;exitX=0.25;exitY=0;exitDx=0;exitDy=0;entryX=0.04;entryY=0.564;entryDx=0;entryDy=0;entryPerimeter=0;" parent="sorx6x5YS4TXoiX6V91C-1" source="2P5cfEg7wQXTq4tr7HCc-18" target="2P5cfEg7wQXTq4tr7HCc-3" edge="1">
          <mxGeometry width="50" height="50" relative="1" as="geometry">
            <mxPoint x="410" y="390" as="sourcePoint" />
            <mxPoint x="460" y="340" as="targetPoint" />
          </mxGeometry>
        </mxCell>
        <mxCell id="2P5cfEg7wQXTq4tr7HCc-26" value="" style="endArrow=classic;html=1;rounded=0;entryX=0.376;entryY=1.018;entryDx=0;entryDy=0;entryPerimeter=0;" parent="sorx6x5YS4TXoiX6V91C-1" source="2P5cfEg7wQXTq4tr7HCc-24" target="2P5cfEg7wQXTq4tr7HCc-20" edge="1">
          <mxGeometry width="50" height="50" relative="1" as="geometry">
            <mxPoint x="88.75" y="370" as="sourcePoint" />
            <mxPoint x="156" y="324.6" as="targetPoint" />
          </mxGeometry>
        </mxCell>
        <mxCell id="2P5cfEg7wQXTq4tr7HCc-27" value="" style="endArrow=classic;html=1;rounded=0;exitX=0.75;exitY=0;exitDx=0;exitDy=0;entryX=0.942;entryY=0.716;entryDx=0;entryDy=0;entryPerimeter=0;" parent="sorx6x5YS4TXoiX6V91C-1" source="2P5cfEg7wQXTq4tr7HCc-19" target="2P5cfEg7wQXTq4tr7HCc-10" edge="1">
          <mxGeometry width="50" height="50" relative="1" as="geometry">
            <mxPoint x="410" y="390" as="sourcePoint" />
            <mxPoint x="460" y="340" as="targetPoint" />
          </mxGeometry>
        </mxCell>
      </root>
    </mxGraphModel>
  </diagram>
</mxfile>
